HIERARCHY
ROOT Hips
{
	OFFSET -0.989649 94.241203 -21.683411
	CHANNELS 6 Xposition Yposition Zposition Zrotation Xrotation Yrotation
	JOINT Spine
	{
		OFFSET 0.000000 8.229828 -1.033529
		CHANNELS 3 Zrotation Xrotation Yrotation
		JOINT Spine1
		{
			OFFSET 0.000000 13.214104 -0.000004
			CHANNELS 3 Zrotation Xrotation Yrotation
			JOINT Spine2
			{
				OFFSET 0.000000 11.402901 -0.032116
				CHANNELS 3 Zrotation Xrotation Yrotation
				JOINT Spine3
				{
					OFFSET 0.000000 10.713203 -0.032148
					CHANNELS 3 Zrotation Xrotation Yrotation
					JOINT Neck
					{
						OFFSET 0.000000 14.443802 -0.000002
						CHANNELS 3 Zrotation Xrotation Yrotation
						JOINT Head
						{
							OFFSET 0.000000 9.446213 0.043360
							CHANNELS 3 Zrotation Xrotation Yrotation
							End Site
							{
								OFFSET 0.000000 22.302200 -0.000002
							}
						}
					}
					JOINT RightShoulder
					{
						OFFSET -2.748830 7.216599 -1.389261
						CHANNELS 3 Zrotation Xrotation Yrotation
						JOINT RightArm
						{
							OFFSET -15.982500 0.000000 1.077400
							CHANNELS 3 Zrotation Xrotation Yrotation
							JOINT RightForearm
							{
								OFFSET -28.063299 -0.000031 -1.298990
								CHANNELS 3 Zrotation Xrotation Yrotation
								JOINT RightHand
								{
									OFFSET -25.731804 -0.584320 0.163717
									CHANNELS 3 Zrotation Xrotation Yrotation
									JOINT RightFinger1_1
									{
										OFFSET -8.188362 0.324829 2.893160
										CHANNELS 3 Zrotation Xrotation Yrotation
										JOINT RightFinger1_2
										{
											OFFSET -3.211906 0.000000 1.815241
											CHANNELS 3 Zrotation Xrotation Yrotation
											JOINT RightFinger1_3
											{
												OFFSET -2.931290 0.000000 1.656639
												CHANNELS 3 Zrotation Xrotation Yrotation
												End Site
												{
													OFFSET -3.020950 0.000275 1.707310
												}
											}
										}
									}
									JOINT RightFinger2_1
									{
										OFFSET -14.106499 0.324829 1.343210
										CHANNELS 3 Zrotation Xrotation Yrotation
										JOINT RightFinger2_2
										{
											OFFSET -2.457581 0.000000 0.000000
											CHANNELS 3 Zrotation Xrotation Yrotation
											JOINT RightFinger2_3
											{
												OFFSET -2.126663 -0.000015 0.000000
												CHANNELS 3 Zrotation Xrotation Yrotation
												End Site
												{
													OFFSET -2.806572 -0.000015 0.000000
												}
											}
										}
									}
									JOINT RightFinger3_1
									{
										OFFSET -14.461502 0.324829 0.084534
										CHANNELS 3 Zrotation Xrotation Yrotation
										JOINT RightFinger3_2
										{
											OFFSET -2.418533 0.000000 0.000000
											CHANNELS 3 Zrotation Xrotation Yrotation
											JOINT RightFinger3_3
											{
												OFFSET -2.602234 0.000000 0.000000
												CHANNELS 3 Zrotation Xrotation Yrotation
												End Site
												{
													OFFSET -3.055267 0.000000 0.000000
												}
											}
										}
									}
									JOINT RightFinger4_1
									{
										OFFSET -14.335503 0.324829 -1.184561
										CHANNELS 3 Zrotation Xrotation Yrotation
										JOINT RightFinger4_2
										{
											OFFSET -2.562088 0.000000 0.000000
											CHANNELS 3 Zrotation Xrotation Yrotation
											JOINT RightFinger4_3
											{
												OFFSET -2.353508 -0.000427 0.000000
												CHANNELS 3 Zrotation Xrotation Yrotation
												End Site
												{
													OFFSET -2.808708 -0.000351 0.000000
												}
											}
										}
									}
									JOINT RightFinger5_1
									{
										OFFSET -13.777199 0.324829 -2.183170
										CHANNELS 3 Zrotation Xrotation Yrotation
										JOINT RightFinger5_2
										{
											OFFSET -2.117401 0.000000 0.000000
											CHANNELS 3 Zrotation Xrotation Yrotation
											JOINT RightFinger5_3
											{
												OFFSET -1.853996 -0.000015 0.000000
												CHANNELS 3 Zrotation Xrotation Yrotation
												End Site
												{
													OFFSET -2.357170 -0.000015 0.000000
												}
											}
										}
									}
								}
							}
						}
					}
					JOINT LeftShoulder
					{
						OFFSET 2.748830 7.216599 -1.389261
						CHANNELS 3 Zrotation Xrotation Yrotation
						JOINT LeftArm
						{
							OFFSET 15.982999 0.000000 1.077410
							CHANNELS 3 Zrotation Xrotation Yrotation
							JOINT LeftForearm
							{
								OFFSET 28.071800 -0.000031 -1.299120
								CHANNELS 3 Zrotation Xrotation Yrotation
								JOINT LeftHand
								{
									OFFSET 25.723198 0.145020 0.248377
									CHANNELS 3 Zrotation Xrotation Yrotation
									JOINT LeftFinger1_1
									{
										OFFSET 8.187859 -0.404510 2.808630
										CHANNELS 3 Zrotation Xrotation Yrotation
										JOINT LeftFinger1_2
										{
											OFFSET 3.211906 0.000000 1.815241
											CHANNELS 3 Zrotation Xrotation Yrotation
											JOINT LeftFinger1_3
											{
												OFFSET 2.931290 0.000000 1.656641
												CHANNELS 3 Zrotation Xrotation Yrotation
												End Site
												{
													OFFSET 3.020950 0.000275 1.707310
												}
											}
										}
									}
									JOINT LeftFinger2_1
									{
										OFFSET 14.106003 -0.404510 1.258680
										CHANNELS 3 Zrotation Xrotation Yrotation
										JOINT LeftFinger2_2
										{
											OFFSET 2.457581 0.000000 0.000000
											CHANNELS 3 Zrotation Xrotation Yrotation
											JOINT LeftFinger2_3
											{
												OFFSET 2.126663 -0.000015 0.000000
												CHANNELS 3 Zrotation Xrotation Yrotation
												End Site
												{
													OFFSET 2.806572 -0.000015 0.000000
												}
											}
										}
									}
									JOINT LeftFinger3_1
									{
										OFFSET 14.460999 -0.404510 0.000000
										CHANNELS 3 Zrotation Xrotation Yrotation
										JOINT LeftFinger3_2
										{
											OFFSET 2.418533 0.000000 0.000000
											CHANNELS 3 Zrotation Xrotation Yrotation
											JOINT LeftFinger3_3
											{
												OFFSET 2.602226 0.000000 0.000000
												CHANNELS 3 Zrotation Xrotation Yrotation
												End Site
												{
													OFFSET 3.055267 0.000000 0.000000
												}
											}
										}
									}
									JOINT LeftFinger4_1
									{
										OFFSET 14.334999 -0.404510 -1.269091
										CHANNELS 3 Zrotation Xrotation Yrotation
										JOINT LeftFinger4_2
										{
											OFFSET 2.562088 0.000000 0.000000
											CHANNELS 3 Zrotation Xrotation Yrotation
											JOINT LeftFinger4_3
											{
												OFFSET 2.353508 -0.000427 0.000000
												CHANNELS 3 Zrotation Xrotation Yrotation
												End Site
												{
													OFFSET 2.808708 -0.000351 0.000000
												}
											}
										}
									}
									JOINT LeftFinger5_1
									{
										OFFSET 13.776703 -0.404510 -2.267700
										CHANNELS 3 Zrotation Xrotation Yrotation
										JOINT LeftFinger5_2
										{
											OFFSET 2.117401 0.000000 0.000000
											CHANNELS 3 Zrotation Xrotation Yrotation
											JOINT LeftFinger5_3
											{
												OFFSET 1.853996 -0.000015 0.000000
												CHANNELS 3 Zrotation Xrotation Yrotation
												End Site
												{
													OFFSET 2.357170 -0.000015 0.000000
												}
											}
										}
									}
								}
							}
						}
					}
				}
			}
		}
	}
	JOINT RightThigh
	{
		OFFSET -8.935050 -3.038040 2.082310
		CHANNELS 3 Zrotation Xrotation Yrotation
		JOINT RightShin
		{
			OFFSET 0.000022 -44.433601 2.096966
			CHANNELS 3 Zrotation Xrotation Yrotation
			JOINT RightFoot
			{
				OFFSET -0.000018 -41.375706 -3.268965
				CHANNELS 3 Zrotation Xrotation Yrotation
				JOINT RightToe
				{
					OFFSET 0.000000 -12.055998 16.346001
					CHANNELS 3 Zrotation Xrotation Yrotation
					End Site
					{
						OFFSET 0.000000 -1.750949 7.768741
					}
				}
			}
		}
	}
	JOINT LeftThigh
	{
		OFFSET 8.935050 -3.038040 2.082310
		CHANNELS 3 Zrotation Xrotation Yrotation
		JOINT LeftShin
		{
			OFFSET -0.000022 -44.433601 2.096966
			CHANNELS 3 Zrotation Xrotation Yrotation
			JOINT LeftFoot
			{
				OFFSET 0.000018 -41.375706 -3.268965
				CHANNELS 3 Zrotation Xrotation Yrotation
				JOINT LeftToe
				{
					OFFSET 0.000000 -12.055998 16.346001
					CHANNELS 3 Zrotation Xrotation Yrotation
					End Site
					{
						OFFSET 0.000000 -1.750949 7.768741
					}
				}
			}
		}
	}
}
MOTION
Frames: 5
Frame Time: 0.004167
0.000001 102.666000 -0.202539 -0.000000 0.000002 0.000000 -0.000000 0.000003 -0.000000 -0.000000 0.000000 -0.000000 -0.000000 0.000000 0.000000 0.000000 -0.000000 0.000000 -0.000000 -0.000000 -0.000000 0.000000 0.000000 0.000000 -0.000000 0.000000 -0.000001 0.000049 -0.000001 0.000050 -0.000000 0.000002 0.000000 -0.000049 0.000001 -0.000051 0.000002 -0.000009 -0.000002 0.000003 -0.000003 -0.000003 0.000001 0.000003 -0.000005 0.000000 -0.000000 -0.000000 0.000000 0.000000 -0.000000 0.000000 -0.000000 0.000000 0.000000 -0.000000 -0.000000 0.000000 -0.000000 -0.000000 0.000000 -0.000000 -0.000000 0.000000 -0.000000 -0.000000 -0.000000 0.000000 0.000000 0.000000 0.000000 -0.000000 0.000000 -0.000000 -0.000000 0.000000 -0.000000 0.000000 0.000000 0.000000 -0.000000 -0.000000 -0.000001 -0.000001 0.000032 0.000000 0.000018 -0.000000 -0.000000 -0.000000 -0.000033 0.000000 -0.000019 -0.000003 -0.000000 -0.000003 -0.000002 -0.000001 0.000006 -0.000006 -0.000006 0.000012 -0.000000 -0.000000 -0.000000 -0.000000 0.000000 0.000000 -0.000000 -0.000000 -0.000000 -0.000000 -0.000000 -0.000000 0.000000 -0.000000 0.000000 0.000000 -0.000000 -0.000000 -0.000000 -0.000000 -0.000000 -0.000000 -0.000000 0.000000 -0.000000 -0.000000 -0.000000 -0.000000 -0.000000 -0.000000 -0.000000 0.000000 0.000000 -0.000000 -0.000000 -0.000000 0.000003 -0.000356 -0.000000 -0.000000 0.000833 -0.000000 -0.000003 -0.000482 0.000000 -0.000000 0.000003 0.000087 -0.000008 -0.000308 0.000000 0.000000 0.000601 0.000000 0.000008 -0.000289 -0.000001 -0.000000 0.000001 0.000000 
-0.989651 94.241211 -21.683409 -10.156397 -7.529698 -36.456302 -1.708959 14.753606 -1.854395 -0.277334 3.702272 -1.019661 -0.261722 3.712992 -0.978110 -0.043786 2.799990 -0.746391 -1.135624 -1.611281 14.232397 1.395566 -2.116361 26.661193 6.789921 -5.339691 -5.055287 40.716008 4.024054 -2.265536 30.611077 38.196993 48.151317 -3.324845 -3.451003 28.039202 -19.815391 67.781506 11.450775 41.096401 10.827294 -2.206039 0.067827 0.038346 0.000003 77.261399 -0.009431 0.000014 57.727099 0.397740 -0.629209 49.003800 1.255757 -3.047227 94.417584 0.000013 0.000018 51.437899 -1.308222 1.450036 51.089511 0.000007 0.000010 90.997483 0.000015 0.000016 51.702910 -1.362625 1.394365 51.060701 0.000009 0.000011 77.261597 0.000010 0.000015 49.402393 -1.217763 1.131741 65.259500 0.000009 0.000016 3.182432 1.064970 -5.693663 -52.089806 -31.455798 -19.620019 -8.811408 11.340541 -80.767697 45.711803 -26.385596 7.161026 23.384218 70.691208 -12.601819 -68.021212 -1.912438 -2.442000 1.063992 -1.018158 19.426991 -77.261515 -0.009956 -0.000015 -57.727126 0.397314 0.629622 -77.260621 0.000017 -0.000018 -97.473008 -1.291802 0.717119 -37.080113 -1.779879 -0.803811 -99.969511 0.000021 -0.000016 -88.871710 -0.366370 -3.469129 -63.453017 -1.938638 0.204912 -67.116526 0.000012 -0.000018 -87.754216 -0.068410 -0.601880 -61.066317 -1.194369 -1.156487 -73.964323 0.000015 -0.000017 -4.566881 2.885020 1.183772 9.440300 37.129325 1.454994 -0.887269 -26.713992 -31.494689 -0.285535 -2.174941 0.000088 22.077393 -6.758899 25.644005 -14.162012 42.330429 16.135905 -0.135725 -18.172700 18.625998 0.258211 -1.054611 -0.009262 
-0.894013 94.188606 -21.566210 -10.038095 -7.543982 -36.336401 -1.688319 14.713703 -1.916763 -0.270440 3.683940 -1.045831 -0.261378 3.694653 -1.004554 -0.043638 2.786173 -0.766178 -1.159824 -1.600081 14.224699 1.349855 -2.099502 26.645495 6.787500 -5.316301 -4.917059 40.619306 3.834738 -2.426821 30.571483 38.416293 48.221317 -3.287646 -3.514814 27.953299 -19.815393 67.781513 11.450795 41.096405 10.827292 -2.206058 0.067844 0.038355 -0.000001 77.261399 -0.009443 0.000016 57.727202 0.397749 -0.629214 49.003804 1.255777 -3.047224 94.417584 0.000012 0.000017 51.438008 -1.308203 1.450022 51.089596 0.000006 0.000009 90.997483 0.000016 0.000016 51.702900 -1.362652 1.394388 51.060701 0.000007 0.000011 77.261700 0.000011 0.000017 49.402400 -1.217797 1.131742 65.259500 0.000011 0.000018 3.154122 1.112308 -5.704291 -52.122314 -31.321697 -19.554920 -8.764991 11.253845 -80.750799 45.802309 -26.404091 7.189066 23.384112 70.691201 -12.601732 -68.021123 -1.912440 -2.441959 1.064012 -1.018151 19.426994 -77.261522 -0.009948 -0.000015 -57.727126 0.397305 0.629628 -77.260614 0.000016 -0.000020 -97.473008 -1.291828 0.717128 -37.080110 -1.779866 -0.803820 -99.969504 0.000021 -0.000017 -88.871717 -0.366358 -3.469138 -63.453017 -1.938629 0.204923 -67.116526 0.000012 -0.000018 -87.754216 -0.068394 -0.601863 -61.066317 -1.194370 -1.156487 -73.964323 0.000014 -0.000018 -4.701101 2.836998 1.120618 9.295493 37.255424 1.121958 -0.582792 -26.893995 -31.110392 -0.303848 -2.148424 -0.005281 21.891894 -6.895144 26.172409 -13.636913 42.639529 16.823804 -0.576614 -18.334200 17.385797 0.359472 -1.263131 -0.006097 
-0.792750 94.133110 -21.447714 -9.915474 -7.559632 -36.197103 -1.668399 14.672001 -1.979056 -0.263677 3.664792 -1.071930 -0.254608 3.675511 -1.030601 -0.042742 2.771740 -0.785551 -1.183344 -1.590782 14.212302 1.305195 -2.086131 26.621700 6.791249 -5.290741 -4.767472 40.525596 3.630953 -2.624055 30.512183 38.659892 48.348020 -3.261845 -3.597432 27.831001 -19.815374 67.781513 11.450787 41.096405 10.827294 -2.206061 0.067839 0.038353 -0.000003 77.261399 -0.009442 0.000015 57.727202 0.397750 -0.629216 49.003800 1.255776 -3.047216 94.417584 0.000018 0.000016 51.438004 -1.308203 1.450022 51.089593 0.000006 0.000011 90.997490 0.000013 0.000016 51.702903 -1.362655 1.394384 51.060705 0.000005 0.000011 77.261700 0.000009 0.000016 49.402400 -1.217795 1.131743 65.259500 0.000009 0.000019 3.133142 1.167678 -5.716266 -52.164108 -31.203593 -19.507710 -8.724955 11.167340 -80.723308 45.903506 -26.426895 7.216149 23.384124 70.691201 -12.601720 -68.021116 -1.912440 -2.441960 1.064008 -1.018148 19.426993 -77.261515 -0.009941 -0.000015 -57.727126 0.397307 0.629630 -77.260621 0.000015 -0.000018 -97.473008 -1.291826 0.717129 -37.080110 -1.779868 -0.803821 -99.969511 0.000022 -0.000016 -88.871717 -0.366353 -3.469138 -63.453011 -1.938629 0.204925 -67.116519 0.000013 -0.000019 -87.754216 -0.068393 -0.601863 -61.066310 -1.194370 -1.156488 -73.964323 0.000015 -0.000018 -4.837898 2.763156 1.113679 9.206923 37.408622 0.853950 -0.360437 -27.064596 -30.896094 -0.298841 -2.143601 -0.011374 21.760588 -7.041853 26.424011 -13.536815 42.938131 17.248109 -0.516909 -18.547795 16.916698 0.472924 -1.496329 -0.001666 
-0.686810 94.076805 -21.328711 -9.789007 -7.575913 -36.041699 -1.649568 14.629707 -2.040266 -0.257139 3.645370 -1.097550 -0.248043 3.656082 -1.056199 -0.041543 2.757090 -0.804573 -1.206054 -1.583791 14.195898 1.262456 -2.076451 26.590099 6.798572 -5.263850 -4.609369 40.434699 3.416485 -2.825912 30.452586 38.914894 48.507508 -3.249036 -3.696014 27.672595 -19.815381 67.781506 11.450787 41.096398 10.827290 -2.206058 0.067842 0.038348 -0.000006 77.261399 -0.009441 0.000015 57.727208 0.397749 -0.629214 49.003800 1.255775 -3.047221 94.417584 0.000016 0.000017 51.438008 -1.308205 1.450023 51.089593 0.000008 0.000014 90.997483 0.000016 0.000016 51.702903 -1.362655 1.394383 51.060705 0.000006 0.000011 77.261700 0.000012 0.000015 49.402400 -1.217798 1.131744 65.259500 0.000010 0.000020 3.118941 1.228641 -5.730889 -52.225416 -31.091796 -19.488316 -8.682932 11.079239 -80.689102 46.012205 -26.449197 7.246263 23.384116 70.691208 -12.601733 -68.021116 -1.912437 -2.441958 1.064007 -1.018151 19.426996 -77.261515 -0.009945 -0.000015 -57.727126 0.397307 0.629627 -77.260621 0.000017 -0.000016 -97.473008 -1.291827 0.717128 -37.080113 -1.779866 -0.803819 -99.969504 0.000022 -0.000017 -88.871717 -0.366357 -3.469139 -63.453011 -1.938632 0.204925 -67.116526 0.000014 -0.000018 -87.754216 -0.068394 -0.601864 -61.066317 -1.194370 -1.156488 -73.964323 0.000013 -0.000016 -4.973042 2.685658 1.109928 9.116202 37.564015 0.579591 -0.131012 -27.235287 -30.691182 -0.292690 -2.141499 -0.019124 21.627490 -7.194185 26.672109 -13.445015 43.239332 17.657207 -0.450463 -18.753003 16.469698 0.596553 -1.754493 0.004241 
